<svg xmlns="http://www.w3.org/2000/svg" width="24" height="24" viewBox="0 0 24 24">
    <g fill="none" fill-rule="evenodd">
        <g fill="#161A21">
            <g>
                <path d="M12 3c4.97 0 9 4.03 9 9s-4.03 9-9 9-9-4.03-9-9 4.03-9 9-9zm6.063 12.5H16.37c-.41 1.099-1.01 2.114-1.77 3.001 1.463-.585 2.683-1.65 3.464-3zm-10.432.001H5.937c.78 1.349 1.999 2.414 3.46 3-.757-.888-1.356-1.903-1.766-3zm6.564 0h-4.39c.516 1.06 1.263 1.999 2.195 2.745.932-.746 1.68-1.685 2.195-2.745zm-7.083-5h-1.95C5.055 10.982 5 11.484 5 12c0 .515.056 1.017.161 1.5h1.951C7.038 13.01 7 12.509 7 12s.038-1.009.112-1.5zm7.747-.001H9.141C9.048 10.988 9 11.49 9 12s.048 1.012.141 1.5h5.718c.093-.488.141-.99.141-1.5s-.048-1.012-.14-1.5zm3.98 0h-1.951c.074.491.112.992.112 1.5s-.038 1.01-.112 1.5h1.95c.106-.483.162-.985.162-1.5s-.056-1.017-.161-1.5zm-9.44-5l-.124.05c-1.408.596-2.58 1.638-3.339 2.95h1.695c.41-1.098 1.01-2.114 1.769-3zM12 5.754l-.136.11c-.868.727-1.568 1.627-2.06 2.636h4.392c-.516-1.06-1.264-2-2.196-2.746zm2.602-.254l.19.231c.67.831 1.203 1.766 1.578 2.769h1.694c-.78-1.35-2-2.414-3.462-3z" transform="translate(-286 -571) translate(286 571)"/>
            </g>
        </g>
    </g>
</svg>
